<svg width="605" height="124" viewBox="0 0 605 124" fill="none" xmlns="http://www.w3.org/2000/svg"><span xmlns="" id="uas-port"/>
<path d="M164.793 74L160.203 58.802H136.947L132.255 74H114.609L138.273 6.68H159.285L182.847 74H164.793ZM140.619 46.868H156.531L151.635 30.752L148.677 20.144H148.473L145.719 30.65L140.619 46.868ZM225.239 23H240.437V95.42H223.097V65.534C220.241 71.246 215.039 75.02 207.695 75.02C194.537 75.02 186.683 65.228 186.683 48.296C186.683 31.67 194.435 21.98 207.593 21.98C215.855 21.98 221.873 26.774 224.627 33.71L225.239 23ZM213.713 62.27C219.629 62.27 223.097 57.476 223.097 49.01V47.99C223.097 39.218 219.425 34.73 213.713 34.73C207.695 34.73 204.125 38.912 204.125 48.5C204.125 58.088 207.695 62.27 213.713 62.27ZM287.093 23H304.433V74H288.929L288.419 64.514C285.155 71.654 279.035 75.02 270.773 75.02C260.369 75.02 253.331 69.92 253.331 57.068V23H270.671V52.682C270.671 59.618 273.221 61.76 277.709 61.76C283.115 61.76 287.093 58.19 287.093 50.03V23ZM366.92 64.106C368.144 64.106 369.164 64.004 370.082 63.698L368.756 73.388C366.716 74.51 364.37 75.02 361.82 75.02C354.986 75.02 350.192 72.674 348.662 67.166C345.806 72.062 339.89 75.02 330.506 75.02C320.408 75.02 314.696 70.532 314.696 62.27C314.696 53.804 320.102 48.398 334.586 45.542L346.112 43.298V41.462C346.112 36.872 343.46 33.914 338.87 33.914C333.974 33.914 330.404 35.852 329.384 41.768L315.308 37.688C317.042 27.998 324.998 21.98 338.87 21.98C354.578 21.98 363.248 28.406 363.248 41.564V60.128C363.248 62.78 364.472 64.106 366.92 64.106ZM336.83 63.8C341.114 63.8 346.112 61.25 346.112 56.558V52.172L337.85 54.11C333.566 55.13 331.832 56.558 331.832 59.414C331.832 62.27 333.668 63.8 336.83 63.8ZM409.204 21.98C411.754 21.98 413.59 22.49 414.712 23.102L412.876 37.79C411.55 36.974 409.102 36.26 406.45 36.26C400.33 36.26 395.026 40.238 395.026 48.296V74H377.686V23H392.986L393.7 34.016C396.148 26.468 401.248 21.98 409.204 21.98ZM430.95 17.084C423.912 17.084 420.852 14.534 420.852 8.82199C420.852 3.008 423.912 0.457998 430.95 0.457998C437.988 0.457998 441.048 3.008 441.048 8.82199C441.048 14.534 437.988 17.084 430.95 17.084ZM439.62 23V74H422.28V23H439.62ZM486.184 23H503.524V74H488.02L487.51 64.514C484.246 71.654 478.126 75.02 469.864 75.02C459.46 75.02 452.422 69.92 452.422 57.068V23H469.762V52.682C469.762 59.618 472.312 61.76 476.8 61.76C482.206 61.76 486.184 58.19 486.184 50.03V23ZM583.147 21.98C593.143 21.98 600.589 28.1 600.589 40.034V74H583.249V44.012C583.249 37.586 580.495 35.24 576.313 35.24C571.111 35.24 567.337 39.116 567.337 46.766V74H549.997V44.012C549.997 37.586 547.141 35.24 543.061 35.24C538.267 35.24 534.085 38.708 534.085 47.072V74H516.745V23H532.249L532.759 32.792C536.023 25.652 542.143 21.98 549.895 21.98C557.443 21.98 563.563 25.448 566.011 32.282C569.377 25.55 575.701 21.98 583.147 21.98ZM122.652 97.92C125.556 97.92 127.548 99.072 128.772 101.28L127.116 102.624C126.156 100.536 125.004 99.72 122.676 99.72C120.156 99.72 118.764 100.896 118.764 102.408C118.764 103.896 119.82 104.64 123.156 105.216C127.404 105.936 128.916 107.28 128.916 109.728C128.916 112.44 126.492 114.24 122.796 114.24C119.436 114.24 117.228 112.776 116.124 110.808L117.78 109.464C118.62 111.288 120.252 112.44 122.844 112.44C125.292 112.44 126.924 111.528 126.924 109.824C126.924 108.456 125.892 107.664 122.556 107.088C118.284 106.344 116.748 105.048 116.748 102.624C116.748 100.08 118.98 97.92 122.652 97.92ZM137.643 101.76C141.267 101.76 143.451 104.112 143.451 108C143.451 111.888 141.267 114.24 137.643 114.24C134.019 114.24 131.835 111.888 131.835 108C131.835 104.112 134.019 101.76 137.643 101.76ZM137.643 103.416C135.219 103.416 133.755 105.144 133.755 108C133.755 110.856 135.219 112.584 137.643 112.584C140.067 112.584 141.531 110.856 141.531 108C141.531 105.144 140.067 103.416 137.643 103.416ZM155.652 102H157.572V114H155.892L155.772 112.176C154.932 113.616 153.396 114.24 151.476 114.24C149.1 114.24 147.06 113.016 147.06 109.848V102H148.98V109.344C148.98 111.816 150.084 112.56 151.812 112.56C153.852 112.56 155.652 111.36 155.652 108.528V102ZM168.711 111.552L169.383 113.16C168.639 113.832 167.607 114.24 166.287 114.24C164.511 114.24 162.975 113.352 162.951 111.024V103.656H160.551V102H162.951V99.12L164.871 98.592V102H169.311V103.656H164.871V110.688C164.871 111.864 165.615 112.44 166.671 112.44C167.535 112.44 168.159 112.104 168.711 111.552ZM177.926 101.76C180.494 101.76 182.606 103.224 182.606 106.32V114H180.686V106.992C180.686 104.328 179.39 103.44 177.734 103.44C175.982 103.44 174.014 104.568 174.014 107.64V114H172.094V96.48H174.014V103.8C174.854 102.36 176.294 101.76 177.926 101.76ZM197.25 107.376C197.25 107.928 197.202 108.384 197.154 108.72H188.106C188.346 111.144 189.81 112.56 192.018 112.56C193.77 112.56 194.97 111.936 195.402 110.784L197.01 111.624C196.098 113.256 194.61 114.24 192.018 114.24C188.394 114.24 186.21 111.888 186.21 108C186.21 104.112 188.25 101.76 191.874 101.76C195.354 101.76 197.25 104.28 197.25 107.376ZM191.874 103.44C189.738 103.44 188.418 104.76 188.13 107.016H195.402C195.138 104.808 193.914 103.44 191.874 103.44ZM210.739 112.608C211.051 112.608 211.411 112.56 211.699 112.488L211.579 114C211.243 114.12 210.739 114.24 210.139 114.24C208.963 114.24 208.195 113.808 207.979 112.464C207.211 113.592 205.651 114.24 204.115 114.24C201.859 114.24 200.035 113.184 200.035 111.024C200.035 109.224 201.619 107.808 204.715 107.28L207.907 106.752V106.08C207.907 104.496 206.899 103.44 205.099 103.44C203.515 103.44 202.315 104.208 201.667 105.72L200.251 104.688C200.875 102.912 202.771 101.76 205.099 101.76C207.835 101.76 209.827 103.056 209.827 105.84V111.744C209.827 112.32 210.067 112.608 210.739 112.608ZM204.211 112.56C206.131 112.56 207.907 111.552 207.907 109.968V108.312L205.219 108.816C203.107 109.2 202.027 109.896 202.027 111.024C202.027 112.032 202.843 112.56 204.211 112.56ZM218.573 114.24C216.365 114.24 214.325 113.376 213.413 111.528L214.973 110.448C215.549 111.912 217.037 112.56 218.765 112.56C220.733 112.56 221.669 111.768 221.669 110.784C221.669 109.896 220.925 109.368 218.525 108.936C215.117 108.312 213.869 107.376 213.869 105.36C213.869 103.416 215.669 101.76 218.597 101.76C221.165 101.76 222.677 102.672 223.349 104.64L221.717 105.6C221.189 104.016 220.109 103.44 218.597 103.44C216.989 103.44 215.789 104.304 215.789 105.192C215.789 106.224 216.581 106.752 219.029 107.16C222.389 107.712 223.589 108.72 223.589 110.688C223.589 112.776 221.645 114.24 218.573 114.24ZM233.821 111.552L234.493 113.16C233.749 113.832 232.717 114.24 231.397 114.24C229.621 114.24 228.085 113.352 228.061 111.024V103.656H225.661V102H228.061V99.12L229.981 98.592V102H234.421V103.656H229.981V110.688C229.981 111.864 230.725 112.44 231.781 112.44C232.645 112.44 233.269 112.104 233.821 111.552ZM255.366 114L253.686 109.608H246.51L244.83 114H242.814L248.982 98.16H251.262L257.406 114H255.366ZM247.206 107.808H252.99L250.854 102.192L250.11 99.984H250.062L249.366 102.12L247.206 107.808ZM264.229 114.24C262.021 114.24 259.981 113.376 259.069 111.528L260.629 110.448C261.205 111.912 262.693 112.56 264.421 112.56C266.389 112.56 267.325 111.768 267.325 110.784C267.325 109.896 266.581 109.368 264.181 108.936C260.773 108.312 259.525 107.376 259.525 105.36C259.525 103.416 261.325 101.76 264.253 101.76C266.821 101.76 268.333 102.672 269.005 104.64L267.373 105.6C266.845 104.016 265.765 103.44 264.253 103.44C262.645 103.44 261.445 104.304 261.445 105.192C261.445 106.224 262.237 106.752 264.685 107.16C268.045 107.712 269.245 108.72 269.245 110.688C269.245 112.776 267.301 114.24 264.229 114.24ZM273.765 99.696C272.901 99.696 272.325 99.12 272.325 98.256C272.325 97.392 272.901 96.816 273.765 96.816C274.629 96.816 275.205 97.392 275.205 98.256C275.205 99.12 274.629 99.696 273.765 99.696ZM274.725 102V114H272.805V102H274.725ZM289.02 112.608C289.332 112.608 289.692 112.56 289.98 112.488L289.86 114C289.524 114.12 289.02 114.24 288.42 114.24C287.244 114.24 286.476 113.808 286.26 112.464C285.492 113.592 283.932 114.24 282.396 114.24C280.14 114.24 278.316 113.184 278.316 111.024C278.316 109.224 279.9 107.808 282.996 107.28L286.188 106.752V106.08C286.188 104.496 285.18 103.44 283.38 103.44C281.796 103.44 280.596 104.208 279.948 105.72L278.532 104.688C279.156 102.912 281.052 101.76 283.38 101.76C286.116 101.76 288.108 103.056 288.108 105.84V111.744C288.108 112.32 288.348 112.608 289.02 112.608ZM282.492 112.56C284.412 112.56 286.188 111.552 286.188 109.968V108.312L283.5 108.816C281.388 109.2 280.308 109.896 280.308 111.024C280.308 112.032 281.124 112.56 282.492 112.56ZM310.783 114L306.463 107.424H302.671V114H300.751V98.16H306.751C309.967 98.16 312.103 99.936 312.103 102.792C312.103 105.048 310.759 106.632 308.599 107.208L313.063 114H310.783ZM302.671 99.96V105.624H306.727C308.983 105.624 310.087 104.688 310.087 102.792C310.087 100.896 308.983 99.96 306.727 99.96H302.671ZM326.25 107.376C326.25 107.928 326.202 108.384 326.154 108.72H317.106C317.346 111.144 318.81 112.56 321.018 112.56C322.77 112.56 323.97 111.936 324.402 110.784L326.01 111.624C325.098 113.256 323.61 114.24 321.018 114.24C317.394 114.24 315.21 111.888 315.21 108C315.21 104.112 317.25 101.76 320.874 101.76C324.354 101.76 326.25 104.28 326.25 107.376ZM320.874 103.44C318.738 103.44 317.418 104.76 317.13 107.016H324.402C324.138 104.808 322.914 103.44 320.874 103.44ZM333.979 114.24C331.771 114.24 329.731 113.376 328.819 111.528L330.379 110.448C330.955 111.912 332.443 112.56 334.171 112.56C336.139 112.56 337.075 111.768 337.075 110.784C337.075 109.896 336.331 109.368 333.931 108.936C330.523 108.312 329.275 107.376 329.275 105.36C329.275 103.416 331.075 101.76 334.003 101.76C336.571 101.76 338.083 102.672 338.755 104.64L337.123 105.6C336.595 104.016 335.515 103.44 334.003 103.44C332.395 103.44 331.195 104.304 331.195 105.192C331.195 106.224 331.987 106.752 334.435 107.16C337.795 107.712 338.995 108.72 338.995 110.688C338.995 112.776 337.051 114.24 333.979 114.24ZM347.619 101.76C351.243 101.76 353.427 104.112 353.427 108C353.427 111.888 351.243 114.24 347.619 114.24C343.995 114.24 341.811 111.888 341.811 108C341.811 104.112 343.995 101.76 347.619 101.76ZM347.619 103.416C345.195 103.416 343.731 105.144 343.731 108C343.731 110.856 345.195 112.584 347.619 112.584C350.043 112.584 351.507 110.856 351.507 108C351.507 105.144 350.043 103.416 347.619 103.416ZM365.629 102H367.549V114H365.869L365.749 112.176C364.909 113.616 363.373 114.24 361.453 114.24C359.077 114.24 357.037 113.016 357.037 109.848V102H358.957V109.344C358.957 111.816 360.061 112.56 361.789 112.56C363.829 112.56 365.629 111.36 365.629 108.528V102ZM377.68 101.76C378.088 101.76 378.64 101.808 379 102L378.616 103.872C378.256 103.68 377.728 103.56 377.104 103.56C375.664 103.56 373.936 104.832 373.936 107.52V114H372.016V102H373.576L373.84 103.968C374.512 102.504 375.808 101.76 377.68 101.76ZM386.502 101.76C388.974 101.76 390.582 102.984 391.47 104.952L389.646 105.816C389.142 104.28 388.11 103.44 386.454 103.44C384.054 103.44 382.614 105.144 382.614 108C382.614 110.856 384.054 112.56 386.454 112.56C388.326 112.56 389.454 111.672 389.814 110.088L391.59 110.712C390.774 112.92 389.046 114.24 386.502 114.24C382.878 114.24 380.694 111.888 380.694 108C380.694 104.112 382.878 101.76 386.502 101.76ZM405.281 107.376C405.281 107.928 405.233 108.384 405.185 108.72H396.137C396.377 111.144 397.841 112.56 400.049 112.56C401.801 112.56 403.001 111.936 403.433 110.784L405.041 111.624C404.129 113.256 402.641 114.24 400.049 114.24C396.425 114.24 394.241 111.888 394.241 108C394.241 104.112 396.281 101.76 399.905 101.76C403.385 101.76 405.281 104.28 405.281 107.376ZM399.905 103.44C397.769 103.44 396.449 104.76 396.161 107.016H403.433C403.169 104.808 401.945 103.44 399.905 103.44ZM426.95 112.608C427.262 112.608 427.622 112.56 427.91 112.488L427.79 114C427.454 114.12 426.95 114.24 426.35 114.24C425.174 114.24 424.406 113.808 424.19 112.464C423.422 113.592 421.862 114.24 420.326 114.24C418.07 114.24 416.246 113.184 416.246 111.024C416.246 109.224 417.83 107.808 420.926 107.28L424.118 106.752V106.08C424.118 104.496 423.11 103.44 421.31 103.44C419.726 103.44 418.526 104.208 417.878 105.72L416.462 104.688C417.086 102.912 418.982 101.76 421.31 101.76C424.046 101.76 426.038 103.056 426.038 105.84V111.744C426.038 112.32 426.278 112.608 426.95 112.608ZM420.422 112.56C422.342 112.56 424.118 111.552 424.118 109.968V108.312L421.43 108.816C419.318 109.2 418.238 109.896 418.238 111.024C418.238 112.032 419.054 112.56 420.422 112.56ZM436.536 101.76C439.104 101.76 441.216 103.224 441.216 106.32V114H439.296V106.992C439.296 104.328 438 103.44 436.344 103.44C434.592 103.44 432.624 104.544 432.624 107.616V114H430.704V102H432.384L432.504 103.872C433.344 102.36 434.88 101.76 436.536 101.76ZM454.299 96.48H456.219V114H454.539L454.419 111.912C453.723 113.28 452.211 114.24 450.315 114.24C446.979 114.24 444.843 111.912 444.843 108C444.843 104.088 446.979 101.76 450.315 101.76C452.115 101.76 453.555 102.624 454.299 103.872V96.48ZM450.531 112.56C452.811 112.56 454.299 110.856 454.299 108.144V107.856C454.299 105.144 452.811 103.44 450.531 103.44C448.179 103.44 446.763 105.216 446.763 108C446.763 110.784 448.179 112.56 450.531 112.56ZM481.988 109.944C480.98 112.656 478.58 114.24 475.604 114.24C471.092 114.24 468.26 111.096 468.26 106.08C468.26 101.064 471.14 97.92 475.556 97.92C478.628 97.92 480.692 99.216 481.7 101.616L479.804 102.504C479.108 100.68 477.812 99.72 475.7 99.72C472.46 99.72 470.276 102.072 470.276 106.08C470.276 110.064 472.316 112.44 475.604 112.44C477.716 112.44 479.372 111.36 480.068 109.224L481.988 109.944ZM490.377 101.76C494.001 101.76 496.185 104.112 496.185 108C496.185 111.888 494.001 114.24 490.377 114.24C486.753 114.24 484.569 111.888 484.569 108C484.569 104.112 486.753 101.76 490.377 101.76ZM490.377 103.416C487.953 103.416 486.489 105.144 486.489 108C486.489 110.856 487.953 112.584 490.377 112.584C492.801 112.584 494.265 110.856 494.265 108C494.265 105.144 492.801 103.416 490.377 103.416ZM505.578 101.76C505.986 101.76 506.538 101.808 506.898 102L506.514 103.872C506.154 103.68 505.626 103.56 505.002 103.56C503.562 103.56 501.834 104.832 501.834 107.52V114H499.914V102H501.474L501.738 103.968C502.41 102.504 503.706 101.76 505.578 101.76ZM515.615 101.76C518.951 101.76 521.087 104.088 521.087 108C521.087 111.912 518.951 114.24 515.615 114.24C513.815 114.24 512.375 113.376 511.631 112.128V119.04H509.711V102H511.391L511.511 104.088C512.207 102.72 513.719 101.76 515.615 101.76ZM515.399 112.56C517.751 112.56 519.167 110.784 519.167 108C519.167 105.216 517.751 103.44 515.399 103.44C513.119 103.44 511.631 105.144 511.631 107.856V108.144C511.631 110.856 513.119 112.56 515.399 112.56ZM533.301 102H535.221V114H533.541L533.421 112.176C532.581 113.616 531.045 114.24 529.125 114.24C526.749 114.24 524.709 113.016 524.709 109.848V102H526.629V109.344C526.629 111.816 527.733 112.56 529.461 112.56C531.501 112.56 533.301 111.36 533.301 108.528V102ZM543.768 114.24C541.56 114.24 539.52 113.376 538.608 111.528L540.168 110.448C540.744 111.912 542.232 112.56 543.96 112.56C545.928 112.56 546.864 111.768 546.864 110.784C546.864 109.896 546.12 109.368 543.72 108.936C540.312 108.312 539.064 107.376 539.064 105.36C539.064 103.416 540.864 101.76 543.792 101.76C546.36 101.76 547.872 102.672 548.544 104.64L546.912 105.6C546.384 104.016 545.304 103.44 543.792 103.44C542.184 103.44 540.984 104.304 540.984 105.192C540.984 106.224 541.776 106.752 544.224 107.16C547.584 107.712 548.784 108.72 548.784 110.688C548.784 112.776 546.84 114.24 543.768 114.24ZM571.396 98.16H573.316V114H571.396V106.872H562.804V114H560.884V98.16H562.804V105.072H571.396V98.16ZM586.504 102H588.424V114H586.744L586.624 112.176C585.784 113.616 584.248 114.24 582.328 114.24C579.952 114.24 577.912 113.016 577.912 109.848V102H579.832V109.344C579.832 111.816 580.936 112.56 582.664 112.56C584.704 112.56 586.504 111.36 586.504 108.528V102ZM598.795 101.76C602.131 101.76 604.267 104.088 604.267 108C604.267 111.912 602.131 114.24 598.795 114.24C596.899 114.24 595.387 113.28 594.691 111.912L594.571 114H592.891V96.48H594.811V103.872C595.555 102.624 596.995 101.76 598.795 101.76ZM598.579 112.56C600.931 112.56 602.347 110.784 602.347 108C602.347 105.216 600.931 103.44 598.579 103.44C596.299 103.44 594.811 105.144 594.811 107.856V108.144C594.811 110.856 596.299 112.56 598.579 112.56Z" fill="#3EA7E0"/>
<path d="M63.6607 45.2L74.1682 63.3995C74.8304 64.4996 75.4413 65.6342 75.9973 66.8L39.2739 66.8C33.3092 66.8 28.4739 61.9647 28.4739 56C28.4739 50.0353 33.3092 45.2 39.2739 45.2L63.6607 45.2Z" fill="#3EA7E0"/>
<path d="M59.5038 38H39.2739C29.3327 38 21.2739 46.0589 21.2739 56C21.2739 65.9411 29.3327 74 39.2739 74L78.6137 74C79.4363 77.1962 79.8739 80.547 79.8739 84C79.8739 106.091 61.9653 124 39.8739 124C30.8673 124 22.5559 121.023 15.8699 116H43.4939C53.435 116 61.4939 107.941 61.4939 98C61.4939 88.0589 53.435 80 43.4939 80H0.0713689C0.669815 73.9725 2.60626 68.3387 5.57947 63.3996L39.8739 4L59.5038 38Z" fill="#3EA7E0"/>
<path d="M43.4939 108.8H8.48771C3.71419 102.767 0.643137 95.3251 0 87.2H43.4939C49.4586 87.2 54.2939 92.0353 54.2939 98C54.2939 103.965 49.4586 108.8 43.4939 108.8Z" fill="#3EA7E0"/>
</svg>